<svg width="24" height="24" viewBox="0 0 24 24" fill="none" xmlns="http://www.w3.org/2000/svg">
<rect width="24" height="24" rx="12" fill="#F5F5F5"/>
<g clip-path="url(#clip0_1807_4091)">
<path d="M10.7165 7.25864H8.1865C6.95439 7.25864 6.33833 7.25864 5.86772 7.4993C5.45377 7.71099 5.11721 8.04878 4.90629 8.46425C4.6665 8.93657 4.6665 9.55488 4.6665 10.7915L4.6665 11.6747C4.6665 12.3606 4.66651 12.7035 4.77815 12.974C4.92701 13.3347 5.21253 13.6213 5.5719 13.7707C5.84143 13.8827 6.18312 13.8827 6.86651 13.8827V17.0108C6.86651 17.1817 6.86651 17.2671 6.87357 17.3391C6.94215 18.038 7.49307 18.5909 8.18941 18.6597C8.26112 18.6668 8.34625 18.6668 8.51651 18.6668C8.68676 18.6668 8.77189 18.6668 8.8436 18.6597C9.53994 18.5909 10.0909 18.038 10.1594 17.3391C10.1665 17.2671 10.1665 17.1817 10.1665 17.0108V13.8827H10.7165C12.0119 13.8827 13.5965 14.5797 14.819 15.2485C15.5322 15.6387 15.8888 15.8338 16.1223 15.8051C16.3389 15.7785 16.5027 15.6809 16.6296 15.5028C16.7665 15.3107 16.7665 14.9264 16.7665 14.1578V6.98358C16.7665 6.21497 16.7665 5.83066 16.6296 5.63859C16.5027 5.46048 16.3389 5.36289 16.1223 5.33627C15.8888 5.30756 15.5322 5.50266 14.819 5.89286C13.5965 6.56171 12.0119 7.25864 10.7165 7.25864Z" stroke="#333333" stroke-width="1.2" stroke-linecap="round" stroke-linejoin="round"/>
<path d="M19.1113 9.09863V12.0427" stroke="#5849FF" stroke-width="1.2" stroke-linecap="round" stroke-linejoin="round"/>
</g>
<defs>
<clipPath id="clip0_1807_4091">
<rect width="16" height="16" fill="white" transform="translate(4 4)"/>
</clipPath>
</defs>
</svg>
