<svg width="18" height="18" viewBox="0 0 18 18" fill="none" xmlns="http://www.w3.org/2000/svg">
<g id="bookmark" clip-path="url(#clip0_525_283)">
<g id="Icon" filter="url(#filter0_d_525_283)">
<path d="M3.75 5.85C3.75 4.58988 3.75 3.95982 3.99524 3.47852C4.21095 3.05516 4.55516 2.71095 4.97852 2.49524C5.45982 2.25 6.08988 2.25 7.35 2.25H10.65C11.9101 2.25 12.5402 2.25 13.0215 2.49524C13.4448 2.71095 13.789 3.05516 14.0048 3.47852C14.25 3.95982 14.25 4.58988 14.25 5.85V15.75L9 12.75L3.75 15.75V5.85Z" fill="white"/>
<path d="M3.75 5.85C3.75 4.58988 3.75 3.95982 3.99524 3.47852C4.21095 3.05516 4.55516 2.71095 4.97852 2.49524C5.45982 2.25 6.08988 2.25 7.35 2.25H10.65C11.9101 2.25 12.5402 2.25 13.0215 2.49524C13.4448 2.71095 13.789 3.05516 14.0048 3.47852C14.25 3.95982 14.25 4.58988 14.25 5.85V15.75L9 12.75L3.75 15.75V5.85Z" stroke="white" stroke-linecap="round" stroke-linejoin="round"/>
</g>
</g>
<defs>
<filter id="filter0_d_525_283" x="0.25" y="-1.25" width="17.5" height="20.5" filterUnits="userSpaceOnUse" color-interpolation-filters="sRGB">
<feFlood flood-opacity="0" result="BackgroundImageFix"/>
<feColorMatrix in="SourceAlpha" type="matrix" values="0 0 0 0 0 0 0 0 0 0 0 0 0 0 0 0 0 0 127 0" result="hardAlpha"/>
<feOffset/>
<feGaussianBlur stdDeviation="1.5"/>
<feComposite in2="hardAlpha" operator="out"/>
<feColorMatrix type="matrix" values="0 0 0 0 0 0 0 0 0 0 0 0 0 0 0 0 0 0 0.5 0"/>
<feBlend mode="normal" in2="BackgroundImageFix" result="effect1_dropShadow_525_283"/>
<feBlend mode="normal" in="SourceGraphic" in2="effect1_dropShadow_525_283" result="shape"/>
</filter>
<clipPath id="clip0_525_283">
<rect width="18" height="18" fill="white"/>
</clipPath>
</defs>
</svg>
