<svg width="14" height="14" viewBox="0 0 14 14" fill="none" xmlns="http://www.w3.org/2000/svg">
<path d="M6.58154 2.01441C6.71599 1.74203 6.78321 1.60584 6.87447 1.56233C6.95388 1.52447 7.04612 1.52447 7.12553 1.56233C7.21679 1.60584 7.28401 1.74203 7.41846 2.01441L8.69402 4.59856C8.73372 4.67897 8.75356 4.71918 8.78257 4.7504C8.80825 4.77804 8.83905 4.80043 8.87326 4.81634C8.9119 4.83431 8.95626 4.84079 9.04499 4.85376L11.8982 5.27081C12.1987 5.31472 12.3489 5.33668 12.4184 5.41007C12.4789 5.47392 12.5074 5.56165 12.4959 5.64885C12.4826 5.74907 12.3739 5.855 12.1563 6.06687L10.0925 8.07706C10.0282 8.13972 9.996 8.17105 9.97524 8.20833C9.95686 8.24134 9.94507 8.2776 9.94052 8.31511C9.93539 8.35747 9.94298 8.40173 9.95816 8.49024L10.4451 11.3295C10.4965 11.629 10.5222 11.7787 10.4739 11.8676C10.4319 11.9449 10.3573 11.9991 10.2708 12.0152C10.1714 12.0336 10.0369 11.9629 9.76797 11.8215L7.21721 10.48C7.13773 10.4383 7.098 10.4174 7.05613 10.4091C7.01906 10.4019 6.98094 10.4019 6.94387 10.4091C6.902 10.4174 6.86227 10.4383 6.78279 10.48L4.23203 11.8215C3.96311 11.9629 3.82865 12.0336 3.72922 12.0152C3.64272 11.9991 3.56808 11.9449 3.52609 11.8676C3.47782 11.7787 3.5035 11.629 3.55487 11.3295L4.04184 8.49024C4.05702 8.40173 4.06461 8.35747 4.05948 8.31511C4.05493 8.2776 4.04314 8.24134 4.02476 8.20833C4.004 8.17105 3.97183 8.13972 3.9075 8.07706L1.84365 6.06687C1.62613 5.855 1.51737 5.74907 1.50413 5.64885C1.49262 5.56165 1.52106 5.47392 1.58155 5.41007C1.65108 5.33668 1.80131 5.31472 2.10177 5.27081L4.955 4.85376C5.04374 4.84079 5.0881 4.83431 5.12674 4.81634C5.16095 4.80043 5.19175 4.77804 5.21743 4.7504C5.24644 4.71918 5.26628 4.67897 5.30597 4.59856L6.58154 2.01441Z" fill="#787878"/>
</svg>
