<svg width="16" height="16" viewBox="0 0 16 16" fill="none" xmlns="http://www.w3.org/2000/svg">
<path d="M7.31115 14.0691C3.96495 14.0691 1.24219 11.3463 1.24219 8.00012C1.24219 4.65391 3.96495 1.93115 7.31115 1.93115C10.6574 1.93115 13.3801 4.65391 13.3801 8.00012C13.3801 8.14644 13.322 8.28678 13.2185 8.39025C13.1151 8.49371 12.9747 8.55184 12.8284 8.55184C12.6821 8.55184 12.5417 8.49371 12.4383 8.39025C12.3348 8.28678 12.2767 8.14644 12.2767 8.00012C12.2767 5.26191 10.0494 3.0346 7.31115 3.0346C4.57295 3.0346 2.34564 5.26191 2.34564 8.00012C2.34564 10.7383 4.57295 12.9656 7.31115 12.9656C8.62729 12.9616 9.88882 12.4391 10.8223 11.5113C10.9258 11.4078 11.0661 11.3497 11.2124 11.3497C11.3587 11.3497 11.499 11.4078 11.6025 11.5113C11.7059 11.6147 11.764 11.7551 11.764 11.9014C11.764 12.0477 11.7059 12.188 11.6025 12.2914C10.4617 13.4256 8.91979 14.0643 7.31115 14.0691Z" fill="#333333"/>
<path d="M11.6759 6.80615H13.9805C14.0206 6.80601 14.06 6.81653 14.0947 6.83664C14.1294 6.85674 14.1581 6.88571 14.178 6.92057C14.1978 6.95544 14.208 6.99494 14.2075 7.03504C14.207 7.07514 14.1959 7.11439 14.1753 7.14877L13.0227 9.08477C13.0027 9.11863 12.9742 9.14669 12.9401 9.16618C12.9059 9.18567 12.8673 9.19592 12.8279 9.19592C12.7886 9.19592 12.75 9.18567 12.7158 9.16618C12.6817 9.14669 12.6532 9.11863 12.6332 9.08477L11.4806 7.14877C11.4603 7.11429 11.4495 7.07506 11.4492 7.03505C11.4489 6.99503 11.4592 6.95565 11.4791 6.92089C11.4989 6.88613 11.5275 6.85721 11.5621 6.83707C11.5967 6.81692 11.6359 6.80626 11.6759 6.80615Z" fill="#333333"/>
</svg>
