<svg width="400" height="400" viewBox="0 0 400 400" fill="none" xmlns="http://www.w3.org/2000/svg">
<path d="M118.1 194.167C116.8 201.278 116 209.062 116 217.615C116 234.047 116 279.214 116.2 319.959C82.7001 286.805 46.5 246.54 39.3 194.263H118.1V194.167Z" fill="url(#paint0_linear_1955_4132)"/>
<path d="M361.4 175.331C361.4 240.102 316.5 287.478 277.6 325.437C248.7 353.69 219.8 373.006 206.9 380.982C204.7 382.327 202.2 383 199.7 383C197.2 383 194.7 382.423 192.5 380.982C190.2 379.54 187.3 377.715 184 375.504V239.045C184 205.314 196 196.281 214.8 194.167C222.8 193.302 232 193.686 242 193.974C242.3 193.974 242.6 193.974 242.9 194.167C243.7 194.551 244.3 195.416 244.3 196.281V203.392C244.3 214.059 256.6 219.921 264.9 213.386L318.4 170.911C324.8 165.817 324.8 156.112 318.4 150.922L264.9 108.447C256.6 101.816 244.3 107.774 244.3 118.441V125.744C244.3 126.609 243.8 127.378 243.1 127.763C242.8 127.955 242.3 128.051 241.9 128.051C237.4 128.051 232.7 127.859 227.8 127.763H44.5C64.5 57.8989 128.5 16 199.5 16H199.9C285.7 16 361.4 77.3108 361.4 175.235V175.331Z" fill="url(#paint1_linear_1955_4132)"/>
<path opacity="0.4" d="M212.1 127.859C168.5 129.396 127.6 144.099 118.1 194.167H39.3C38.4 188.016 38 181.77 38 175.235C38 158.226 40.3 142.37 44.5 127.763H212.1V127.859Z" fill="#B0CCF2"/>
<path opacity="0.4" d="M242 193.974C242.3 193.974 242.6 193.974 242.9 194.166H214.8C222.8 193.302 232 193.686 242 193.974Z" fill="#B0CCF2"/>
<path opacity="0.4" d="M241.9 128.147C237.4 128.147 232.7 127.955 227.8 127.859H243.1C242.8 128.051 242.3 128.147 241.9 128.147Z" fill="#B0CCF2"/>
<path d="M227.8 127.858H212.1C217.3 127.667 222.6 127.667 227.8 127.858Z" fill="white"/>
<defs>
<linearGradient id="paint0_linear_1955_4132" x1="61.7" y1="271.622" x2="303.036" y2="35.9145" gradientUnits="userSpaceOnUse">
<stop stop-color="#7FDDFF"/>
<stop offset="1" stop-color="#4800BF"/>
</linearGradient>
<linearGradient id="paint1_linear_1955_4132" x1="74.6" y1="289.304" x2="353.868" y2="16.6296" gradientUnits="userSpaceOnUse">
<stop stop-color="#7FDDFF"/>
<stop offset="1" stop-color="#4800BF"/>
</linearGradient>
</defs>
</svg>
