<svg width="12" height="12" viewBox="0 0 12 12" fill="none" xmlns="http://www.w3.org/2000/svg">
<g id="message-dots-circle">
<path id="Icon" d="M3.75 6H3.755M6 6H6.005M8.25 6H8.255M6 10.5C8.48528 10.5 10.5 8.48528 10.5 6C10.5 3.51472 8.48528 1.5 6 1.5C3.51472 1.5 1.5 3.51472 1.5 6C1.5 6.59857 1.61687 7.16985 1.82903 7.69226C1.86964 7.79224 1.88994 7.84223 1.899 7.88264C1.90786 7.92217 1.9111 7.95142 1.9111 7.99193C1.91111 8.03335 1.90359 8.07846 1.88855 8.16868L1.59206 9.94762C1.56102 10.1339 1.54549 10.2271 1.57438 10.2944C1.59966 10.3534 1.64664 10.4003 1.70559 10.4256C1.77295 10.4545 1.86609 10.439 2.05238 10.4079L3.83133 10.1114C3.92154 10.0964 3.96665 10.0889 4.00807 10.0889C4.04858 10.0889 4.07783 10.0921 4.11736 10.101C4.15777 10.1101 4.20776 10.1304 4.30775 10.171C4.83015 10.3831 5.40143 10.5 6 10.5ZM4 6C4 6.13807 3.88807 6.25 3.75 6.25C3.61193 6.25 3.5 6.13807 3.5 6C3.5 5.86193 3.61193 5.75 3.75 5.75C3.88807 5.75 4 5.86193 4 6ZM6.25 6C6.25 6.13807 6.13807 6.25 6 6.25C5.86193 6.25 5.75 6.13807 5.75 6C5.75 5.86193 5.86193 5.75 6 5.75C6.13807 5.75 6.25 5.86193 6.25 6ZM8.5 6C8.5 6.13807 8.38807 6.25 8.25 6.25C8.11193 6.25 8 6.13807 8 6C8 5.86193 8.11193 5.75 8.25 5.75C8.38807 5.75 8.5 5.86193 8.5 6Z" stroke="#787878" stroke-linecap="round" stroke-linejoin="round"/>
</g>
</svg>
