<svg width="24" height="24" viewBox="0 0 24 24" fill="none" xmlns="http://www.w3.org/2000/svg">
<g id="kakao_talk_icon">
<circle id="Ellipse 110" cx="12" cy="12" r="12" fill="#FFE400"/>
<g id="Group 2214">
<path id="Union" fill-rule="evenodd" clip-rule="evenodd" d="M11.8669 17.1014C15.7697 17.1014 18.9337 14.67 18.9337 11.6707C18.9337 8.67141 15.7697 6.23999 11.8669 6.23999C7.96397 6.23999 4.80005 8.67141 4.80005 11.6707C4.80005 13.5851 6.08901 15.2681 8.03638 16.2352L7.74741 17.7523C7.66195 18.2009 8.17321 18.5199 8.53858 18.2458L10.2539 16.9593C10.772 17.0523 11.312 17.1014 11.8669 17.1014Z" fill="#3F1D1D"/>
<path id="Union_2" fill-rule="evenodd" clip-rule="evenodd" d="M10.1816 10.355C10.2342 10.2203 10.373 10.1343 10.512 10.1406C10.654 10.13 10.7978 10.2167 10.8516 10.3544L11.9091 13.0609C11.9707 13.2184 11.8911 13.383 11.7314 13.4284C11.5716 13.4738 11.3922 13.3829 11.3306 13.2254L11.1862 12.8557H9.84749L9.70282 13.226C9.64125 13.3835 9.4618 13.4744 9.302 13.429C9.14219 13.3835 9.06255 13.219 9.12411 13.0614L10.1816 10.355ZM10.0825 12.2543L10.5168 11.1426L10.9512 12.2543H10.0825ZM15.026 13.4572C14.8599 13.4572 14.7253 13.3226 14.7253 13.1565V10.45C14.7253 10.284 14.8599 10.1493 15.026 10.1493C15.1921 10.1493 15.3267 10.284 15.3267 10.45V11.4311L16.4889 10.2717C16.5998 10.1611 16.7847 10.1668 16.902 10.2844C17.0193 10.402 17.0245 10.5869 16.9137 10.6975L15.9307 11.6781L16.9882 13.0216C17.071 13.1269 17.0323 13.2954 16.9018 13.3982C16.7713 13.5009 16.5984 13.4988 16.5156 13.3936L15.502 12.1058L15.3465 12.2609C15.3401 12.2672 15.3335 12.2732 15.3267 12.2787V13.1565C15.3267 13.3226 15.1921 13.4572 15.026 13.4572ZM6.60596 10.4501C6.60596 10.284 6.74059 10.1493 6.90667 10.1493H9.31239C9.47847 10.1493 9.61311 10.284 9.61311 10.4501C9.61311 10.6161 9.47847 10.7508 9.31239 10.7508L8.41025 10.7508L8.41025 13.1565C8.41025 13.3226 8.27561 13.4572 8.10953 13.4572C7.94345 13.4572 7.80882 13.3226 7.80882 13.1565L7.80882 10.7508H6.90667C6.74059 10.7508 6.60596 10.6161 6.60596 10.4501ZM12.6203 13.4572C12.4542 13.4572 12.3195 13.3226 12.3195 13.1565V10.4501C12.3195 10.284 12.4542 10.1493 12.6203 10.1493C12.7863 10.1493 12.921 10.284 12.921 10.4501V12.8558L14.1238 12.8558C14.2899 12.8558 14.4246 12.9904 14.4246 13.1565C14.4246 13.3226 14.2899 13.4572 14.1238 13.4572L12.6203 13.4572Z" fill="#FFE400"/>
</g>
</g>
</svg>
