<svg width="19" height="22" viewBox="0 0 19 22" fill="none" xmlns="http://www.w3.org/2000/svg">
<g id="Group 2255" filter="url(#filter0_d_848_2626)">
<path id="Vector" d="M9.4 2C7.7032 2.00191 6.07644 2.67682 4.87662 3.87667C3.6768 5.07652 3.00191 6.70332 3 8.40017C3 11.0042 4.8904 13.1667 6.8928 15.4555C7.5264 16.1804 8.1824 16.93 8.7664 17.6884C8.84113 17.7854 8.93712 17.8639 9.04697 17.9179C9.15681 17.9719 9.27759 18 9.4 18C9.52241 18 9.64319 17.9719 9.75303 17.9179C9.86288 17.8639 9.95887 17.7854 10.0336 17.6884C10.6176 16.93 11.2736 16.1804 11.9072 15.4555C13.9096 13.1667 15.8 11.0042 15.8 8.40017C15.7981 6.70332 15.1232 5.07652 13.9234 3.87667C12.7236 2.67682 11.0968 2.00191 9.4 2Z" fill="#5849FF"/>
<circle id="Ellipse 9" cx="9.4" cy="7.60001" r="2.4" fill="white"/>
</g>
<defs>
<filter id="filter0_d_848_2626" x="0" y="0" width="18.8" height="22" filterUnits="userSpaceOnUse" color-interpolation-filters="sRGB">
<feFlood flood-opacity="0" result="BackgroundImageFix"/>
<feColorMatrix in="SourceAlpha" type="matrix" values="0 0 0 0 0 0 0 0 0 0 0 0 0 0 0 0 0 0 127 0" result="hardAlpha"/>
<feOffset dy="1"/>
<feGaussianBlur stdDeviation="1.5"/>
<feComposite in2="hardAlpha" operator="out"/>
<feColorMatrix type="matrix" values="0 0 0 0 0 0 0 0 0 0 0 0 0 0 0 0 0 0 0.25 0"/>
<feBlend mode="normal" in2="BackgroundImageFix" result="effect1_dropShadow_848_2626"/>
<feBlend mode="normal" in="SourceGraphic" in2="effect1_dropShadow_848_2626" result="shape"/>
</filter>
</defs>
</svg>
