<svg width="16" height="16" viewBox="0 0 16 16" fill="none" xmlns="http://www.w3.org/2000/svg">
<g id="star-01">
<path id="Icon" d="M7.52169 2.30223C7.67534 1.99094 7.75217 1.83529 7.85647 1.78556C7.94722 1.7423 8.05264 1.7423 8.14339 1.78556C8.24769 1.83529 8.32452 1.99094 8.47817 2.30223L9.93596 5.25554C9.98132 5.34744 10.004 5.39339 10.0372 5.42907C10.0665 5.46066 10.1017 5.48625 10.1408 5.50443C10.185 5.52497 10.2357 5.53238 10.3371 5.5472L13.5979 6.02382C13.9413 6.07401 14.113 6.09911 14.1924 6.18298C14.2616 6.25595 14.2941 6.35622 14.2809 6.45587C14.2658 6.57041 14.1415 6.69147 13.8929 6.93361L11.5342 9.23097C11.4607 9.30258 11.4239 9.33839 11.4002 9.38099C11.3792 9.41872 11.3657 9.46016 11.3605 9.50302C11.3547 9.55143 11.3633 9.60202 11.3807 9.70318L11.9372 12.9481C11.9959 13.2903 12.0253 13.4615 11.9701 13.563C11.9221 13.6514 11.8368 13.7133 11.738 13.7317C11.6243 13.7527 11.4707 13.6719 11.1633 13.5103L8.24817 11.9772C8.15734 11.9295 8.11193 11.9056 8.06408 11.8962C8.02172 11.8879 7.97814 11.8879 7.93578 11.8962C7.88793 11.9056 7.84252 11.9295 7.75169 11.9772L4.83653 13.5103C4.5292 13.6719 4.37553 13.7527 4.2619 13.7317C4.16304 13.7133 4.07773 13.6514 4.02974 13.563C3.97459 13.4615 4.00394 13.2903 4.06263 12.9481L4.61918 9.70318C4.63653 9.60202 4.6452 9.55143 4.63933 9.50302C4.63413 9.46016 4.62066 9.41872 4.59966 9.38099C4.57593 9.33839 4.53917 9.30258 4.46564 9.23097L2.10696 6.93361C1.85836 6.69147 1.73406 6.57041 1.71894 6.45587C1.70578 6.35622 1.73829 6.25595 1.80742 6.18298C1.88688 6.09911 2.05857 6.07401 2.40195 6.02382L5.66279 5.5472C5.7642 5.53238 5.81491 5.52497 5.85906 5.50443C5.89816 5.48625 5.93336 5.46066 5.96271 5.42907C5.99586 5.39339 6.01854 5.34744 6.0639 5.25554L7.52169 2.30223Z" fill="#FFBC00"/>
</g>
</svg>
