<svg width="24" height="24" viewBox="0 0 24 24" fill="none" xmlns="http://www.w3.org/2000/svg">
<g id="Frame 18">
<g id="Group 10">
<path id="Fill 1" fill-rule="evenodd" clip-rule="evenodd" d="M14.2715 6.74497C13.819 6.74497 13.4518 6.37772 13.4518 5.92521V3.279C13.4518 2.82648 13.819 2.45923 14.2715 2.45923C14.7241 2.45923 15.0913 2.82648 15.0913 3.279V5.92521C15.0913 6.37772 14.7241 6.74497 14.2715 6.74497Z" fill="#333333"/>
<path id="Fill 3" fill-rule="evenodd" clip-rule="evenodd" d="M14.2715 21.0781C13.819 21.0781 13.4518 20.7109 13.4518 20.2584V18.0472C13.4518 17.5936 13.819 17.2274 14.2715 17.2274C14.7241 17.2274 15.0913 17.5936 15.0913 18.0472V20.2584C15.0913 20.7109 14.7241 21.0781 14.2715 21.0781Z" fill="#333333"/>
<path id="Fill 5" fill-rule="evenodd" clip-rule="evenodd" d="M14.2715 15.1113C13.819 15.1113 13.4518 14.744 13.4518 14.2915V9.02204C13.4518 8.56953 13.819 8.20227 14.2715 8.20227C14.7241 8.20227 15.0913 8.56953 15.0913 9.02204V14.2915C15.0913 14.744 14.7241 15.1113 14.2715 15.1113Z" fill="#333333"/>
<path id="Fill 6" fill-rule="evenodd" clip-rule="evenodd" d="M14.2717 6.74497C13.8192 6.74497 13.4519 6.37772 13.4519 5.92521V3.279C13.4519 2.82648 13.8192 2.45923 14.2717 2.45923C14.7242 2.45923 15.0914 2.82648 15.0914 3.279V5.92521C15.0914 6.37772 14.7242 6.74497 14.2717 6.74497Z" fill="#5849FF"/>
<path id="Fill 7" fill-rule="evenodd" clip-rule="evenodd" d="M14.2717 21.0781C13.8192 21.0781 13.4519 20.7109 13.4519 20.2584V18.0472C13.4519 17.5936 13.8192 17.2274 14.2717 17.2274C14.7242 17.2274 15.0914 17.5936 15.0914 18.0472V20.2584C15.0914 20.7109 14.7242 21.0781 14.2717 21.0781Z" fill="#5849FF"/>
<path id="Fill 8" fill-rule="evenodd" clip-rule="evenodd" d="M14.2717 15.1113C13.8192 15.1113 13.4519 14.744 13.4519 14.2915V9.02204C13.4519 8.56953 13.8192 8.20227 14.2717 8.20227C14.7242 8.20227 15.0914 8.56953 15.0914 9.02204V14.2915C15.0914 14.744 14.7242 15.1113 14.2717 15.1113Z" fill="#5849FF"/>
<g id="Group 9">
<mask id="mask0_242_541" style="mask-type:luminance" maskUnits="userSpaceOnUse" x="0" y="2" width="24" height="20">
<path id="Clip 8" fill-rule="evenodd" clip-rule="evenodd" d="M0.5 2.18604H24V21.3136H0.5V2.18604Z" fill="white"/>
</mask>
<g mask="url(#mask0_242_541)">
<path id="Fill 7_2" fill-rule="evenodd" clip-rule="evenodd" d="M2.13946 14.8146V16.934C2.13946 18.4446 3.38879 19.6742 4.92449 19.6742H19.5754C21.1111 19.6742 22.3604 18.4446 22.3604 16.934V14.8146C20.993 14.455 19.9809 13.2177 19.9809 11.7509C19.9809 10.283 20.9919 9.04674 22.3604 8.68714L22.3593 6.56558C22.3593 5.05502 21.11 3.82537 19.5743 3.82537H4.92558C3.38988 3.82537 2.14056 5.05502 2.14056 6.56558L2.13946 8.7713C3.52432 9.11123 4.51898 10.2983 4.51898 11.7509C4.51898 13.2177 3.50684 14.455 2.13946 14.8146ZM19.5754 21.3137H4.92456C2.48493 21.3137 0.5 19.3484 0.5 16.934V14.1008C0.5 13.6483 0.867256 13.2811 1.31977 13.2811C2.17998 13.2811 2.87951 12.5947 2.87951 11.7508C2.87951 10.9311 2.2084 10.3124 1.31977 10.3124C1.10226 10.3124 0.893488 10.2261 0.740465 10.072C0.586349 9.91893 0.5 9.70907 0.5 9.49265L0.501093 6.56554C0.501093 4.15105 2.48602 2.18579 4.92565 2.18579H19.5744C22.014 2.18579 23.9989 4.15105 23.9989 6.56554L24 9.40084C24 9.61726 23.9137 9.82712 23.7595 9.98014C23.6065 10.1343 23.3977 10.2206 23.1802 10.2206C22.32 10.2206 21.6205 10.907 21.6205 11.7508C21.6205 12.5947 22.32 13.2811 23.1802 13.2811C23.6327 13.2811 24 13.6483 24 14.1008V16.934C24 19.3484 22.0151 21.3137 19.5754 21.3137Z" fill="#333333"/>
</g>
</g>
</g>
</g>
</svg>
