<svg width="24" height="24" viewBox="0 0 24 24" fill="none" xmlns="http://www.w3.org/2000/svg">
<g id="Frame 21">
<g id="Home">
<path id="Home_2" d="M9.04263 20.8582V17.6139C9.04261 16.7887 9.71535 16.1182 10.5489 16.1127H13.602C14.4395 16.1127 15.1184 16.7848 15.1184 17.6139V17.6139V20.8682C15.1182 21.5689 15.6831 22.1415 16.3906 22.1579H18.426C20.4551 22.1579 22.1 20.5295 22.1 18.5207V18.5207V9.2916C22.0892 8.50135 21.7144 7.75926 21.0823 7.27652L14.1211 1.72498C12.9015 0.758341 11.1679 0.758341 9.9484 1.72498L3.01772 7.2866C2.38323 7.76738 2.00781 8.5107 2 9.30168V18.5207C2 20.5295 3.64489 22.1579 5.67397 22.1579H7.70942C8.43449 22.1579 9.02228 21.576 9.02228 20.8582V20.8582" stroke="#333333" stroke-width="1.8" stroke-linecap="round" stroke-linejoin="round"/>
</g>
<rect id="Rectangle 1096" x="7" y="8" width="10" height="2" rx="1" fill="#5849FF"/>
</g>
</svg>
