<svg width="24" height="24" viewBox="0 0 24 24" fill="none" xmlns="http://www.w3.org/2000/svg">
<g id="food-kitchenware-serving-dome--cook-tool-dome-kitchen-serving-paltter-dish-tools-food" clip-path="url(#clip0_242_507)">
<g id="Group">
<path id="Vector" d="M12 3.57143V1" stroke="#333333" stroke-width="1.8" stroke-linecap="round" stroke-linejoin="round"/>
<path id="Vector_2" d="M0.857178 19.8572H23.1429" stroke="#333333" stroke-width="1.8" stroke-linecap="round" stroke-linejoin="round"/>
<path id="Vector_3" d="M12 3.57141C14.9553 3.57141 17.7895 4.74539 19.8792 6.83508C21.9689 8.92477 23.1429 11.759 23.1429 14.7143V14.7143C23.1429 15.1689 22.9623 15.605 22.6408 15.9265C22.3193 16.2479 21.8833 16.4286 21.4286 16.4286H2.57146C2.11681 16.4286 1.68077 16.2479 1.35928 15.9265C1.03779 15.605 0.857178 15.1689 0.857178 14.7143C0.857178 11.759 2.03115 8.92477 4.12085 6.83508C6.21054 4.74539 9.04477 3.57141 12 3.57141V3.57141Z" stroke="#5849FF" stroke-width="1.8" stroke-linecap="round" stroke-linejoin="round"/>
</g>
</g>
<defs>
<clipPath id="clip0_242_507">
<rect width="24" height="24" fill="white"/>
</clipPath>
</defs>
</svg>
