<svg width="24" height="24" viewBox="0 0 24 24" fill="none" xmlns="http://www.w3.org/2000/svg">
<g id="travel-hotel-pool-ladder-2--pool-stairs-swim-swimming-water-ladder" clip-path="url(#clip0_242_480)">
<g id="Group">
<path id="Vector" d="M23.1428 23.2857H22.2857C21.3764 23.2857 20.5043 22.9245 19.8613 22.2815C19.2183 21.6386 18.8571 20.7665 18.8571 19.8572C18.8571 20.7665 18.4959 21.6386 17.8529 22.2815C17.2099 22.9245 16.3379 23.2857 15.4285 23.2857C14.5192 23.2857 13.6472 22.9245 13.0042 22.2815C12.3612 21.6386 12 20.7665 12 19.8572C12 20.7665 11.6388 21.6386 10.9958 22.2815C10.3528 22.9245 9.48072 23.2857 8.5714 23.2857C7.66209 23.2857 6.79002 22.9245 6.14704 22.2815C5.50405 21.6386 5.14283 20.7665 5.14283 19.8572C5.14283 20.7665 4.78161 21.6386 4.13863 22.2815C3.49564 22.9245 2.62357 23.2857 1.71426 23.2857H0.857117" stroke="#5849FF" stroke-width="1.8" stroke-linecap="round" stroke-linejoin="round"/>
<path id="Vector_2" d="M4.28571 4.42857C4.28571 3.51926 4.64693 2.64719 5.28991 2.00421C5.93289 1.36122 6.80496 1 7.71428 1C8.62359 1 9.49566 1.36122 10.1386 2.00421C10.7816 2.64719 11.1428 3.51926 11.1428 4.42857V16.4286" stroke="#333333" stroke-width="1.8" stroke-linecap="round" stroke-linejoin="round"/>
<path id="Vector_3" d="M16.2857 1C17.195 1 18.0671 1.36122 18.7101 2.00421C19.3531 2.64719 19.7143 3.51926 19.7143 4.42857V16.4286" stroke="#333333" stroke-width="1.8" stroke-linecap="round" stroke-linejoin="round"/>
<path id="Vector_4" d="M11.1428 7.85718H19.7143" stroke="#333333" stroke-width="1.8" stroke-linecap="round" stroke-linejoin="round"/>
<path id="Vector_5" d="M11.1428 13H19.7143" stroke="#333333" stroke-width="1.8" stroke-linecap="round" stroke-linejoin="round"/>
</g>
</g>
<defs>
<clipPath id="clip0_242_480">
<rect width="24" height="24" fill="white"/>
</clipPath>
</defs>
</svg>
