<svg width="24" height="24" viewBox="0 0 24 24" fill="none" xmlns="http://www.w3.org/2000/svg">
<g id="Frame 17" clip-path="url(#clip0_242_540)">
<g id="Buy">
<path id="Stroke 1" d="M1.54834 1.54834L3.94207 1.96264L5.05032 15.1661C5.13894 16.2445 6.04004 17.0719 7.12182 17.0685H19.6762C20.7085 17.0708 21.5843 16.3112 21.7305 15.2893L22.8226 7.74212C22.9446 6.89856 22.3588 6.11599 21.5164 5.994C21.4428 5.98365 4.32645 5.97789 4.32645 5.97789" stroke="#333333" stroke-width="1.8" stroke-linecap="round" stroke-linejoin="round"/>
<path id="Stroke 3" d="M14.639 10.2313H17.8303" stroke="#5849FF" stroke-width="1.8" stroke-linecap="round" stroke-linejoin="round"/>
<path id="Stroke 5" fill-rule="evenodd" clip-rule="evenodd" d="M6.61702 21.058C6.96342 21.058 7.24307 21.3388 7.24307 21.684C7.24307 22.0304 6.96342 22.3112 6.61702 22.3112C6.27062 22.3112 5.99097 22.0304 5.99097 21.684C5.99097 21.3388 6.27062 21.058 6.61702 21.058Z" fill="#333333" stroke="#333333" stroke-width="1.8" stroke-linecap="round" stroke-linejoin="round"/>
<path id="Stroke 7" fill-rule="evenodd" clip-rule="evenodd" d="M19.5987 21.058C19.9451 21.058 20.2259 21.3388 20.2259 21.684C20.2259 22.0304 19.9451 22.3112 19.5987 22.3112C19.2523 22.3112 18.9727 22.0304 18.9727 21.684C18.9727 21.3388 19.2523 21.058 19.5987 21.058Z" fill="#333333" stroke="#333333" stroke-width="1.8" stroke-linecap="round" stroke-linejoin="round"/>
</g>
</g>
<defs>
<clipPath id="clip0_242_540">
<rect width="24" height="24" fill="white"/>
</clipPath>
</defs>
</svg>
