<svg width="24" height="24" viewBox="0 0 24 24" fill="none" xmlns="http://www.w3.org/2000/svg">
<g id="Frame 19">
<g id="Camera">
<path id="Camera_2" fill-rule="evenodd" clip-rule="evenodd" d="M18.7656 5.2265C18.6672 5.2265 18.5772 5.16896 18.492 4.99035C18.1512 4.26751 17.7336 3.38405 17.4828 2.89017C16.9332 1.80891 15.99 1.20834 14.8176 1.19995H9.1752C8.0112 1.20834 7.0668 1.80891 6.5172 2.89137C6.2736 3.37086 5.8716 4.22196 5.5368 4.93281L5.466 5.08145C5.424 5.17016 5.3352 5.2265 5.2356 5.2265C2.3484 5.2265 0 7.57242 0 10.4554V17.5711C0 20.454 2.3484 22.8 5.2356 22.8H6.1296C6.6264 22.8 7.0296 22.3972 7.0296 21.9009C7.0296 21.4046 6.6264 21.0019 6.1296 21.0019H5.2356C3.3408 21.0019 1.8 19.4627 1.8 17.5711V10.4554C1.8 8.56378 3.3408 7.0246 5.2356 7.0246C6.0264 7.0246 6.756 6.56309 7.0932 5.84984L7.164 5.7C7.4916 5.00474 7.8852 4.17281 8.1228 3.70411C8.3688 3.21982 8.6988 3.00165 9.1836 2.99805H14.8104C15.3024 3.00165 15.6312 3.21982 15.8772 3.70291C16.122 4.1872 16.5312 5.05149 16.908 5.84984C17.2452 6.56309 17.9748 7.0246 18.7656 7.0246C20.6592 7.0246 22.2 8.56378 22.2 10.4554V17.5711C22.2 19.4627 20.6592 21.0019 18.7656 21.0019H10.296C9.7992 21.0019 9.396 21.4046 9.396 21.9009C9.396 22.3972 9.7992 22.8 10.296 22.8H18.7656C21.6516 22.8 24 20.454 24 17.5711V10.4554C24 7.57242 21.6516 5.2265 18.7656 5.2265ZM12.0009 18.3049C13.2621 18.3049 14.4501 17.8086 15.3465 16.9072C16.2381 16.0105 16.7253 14.8309 16.7145 13.5927C16.7157 12.3364 16.2237 11.1508 15.3297 10.2578C14.4369 9.36592 13.2549 8.87563 12.0009 8.87563H11.9985C11.6529 8.87563 11.3073 8.9128 10.9725 8.98951C10.4877 9.0962 10.1817 9.57809 10.2909 10.0624C10.3989 10.5455 10.8789 10.8547 11.3649 10.7421C11.5725 10.6965 11.7849 10.6737 11.9997 10.6737H12.0009C12.7749 10.6737 13.5045 10.9782 14.0565 11.5296C14.6109 12.0834 14.9157 12.8147 14.9145 13.5986C14.9205 14.361 14.6205 15.0851 14.0697 15.6401C13.5141 16.1987 12.7785 16.5068 12.0009 16.5068H11.9985C11.2209 16.5056 10.4901 16.2011 9.93934 15.6485C9.38734 15.0959 9.08494 14.3634 9.08614 13.5843C9.08614 13.2858 9.13294 12.9897 9.22414 12.7056C9.37414 12.2333 9.11254 11.7274 8.63854 11.5764C8.16214 11.4277 7.65814 11.6867 7.50814 12.1602C7.36174 12.6217 7.28614 13.0988 7.28614 13.5831C7.28374 14.8393 7.77334 16.0249 8.66374 16.9179C9.55414 17.811 10.7373 18.3037 11.9961 18.3049H12.0009ZM19.1762 10.5025C19.0922 10.5864 18.9962 10.6584 18.8882 10.7063C18.7802 10.7543 18.6602 10.7675 18.5402 10.7675C18.3122 10.7675 18.0842 10.6823 17.9042 10.5025C17.7362 10.3347 17.6402 10.107 17.6402 9.86841C17.6402 9.75932 17.6642 9.63945 17.7122 9.53276C17.7602 9.42488 17.8322 9.31699 17.9042 9.23308C17.9882 9.15996 18.0962 9.08803 18.2042 9.04008C18.4202 8.95617 18.6722 8.95617 18.8882 9.04008C18.9962 9.08803 19.1042 9.15996 19.1762 9.23308C19.2602 9.31699 19.3322 9.42488 19.3802 9.53276C19.4282 9.63945 19.4522 9.75932 19.4522 9.86841C19.4522 10.107 19.3562 10.3347 19.1762 10.5025Z" fill="#333333"/>
<path id="Fill 4" d="M12.0009 18.3049C13.2621 18.3049 14.4501 17.8086 15.3465 16.9071C16.2381 16.0105 16.7253 14.8309 16.7145 13.5926C16.7157 12.3364 16.2237 11.1508 15.3297 10.2578C14.4369 9.36589 13.2549 8.87561 12.0009 8.87561H11.9985C11.6529 8.87561 11.3073 8.91277 10.9725 8.98949C10.4877 9.09618 10.1817 9.57807 10.2909 10.0624C10.3989 10.5454 10.8789 10.8547 11.3649 10.742C11.5725 10.6965 11.7849 10.6737 11.9997 10.6737H12.0009C12.7749 10.6737 13.5045 10.9782 14.0565 11.5296C14.6109 12.0834 14.9157 12.8147 14.9145 13.5986C14.9205 14.361 14.6205 15.0851 14.0697 15.6401C13.5141 16.1987 12.7785 16.5068 12.0009 16.5068H11.9985C11.2209 16.5056 10.4901 16.2011 9.93934 15.6485C9.38734 15.0958 9.08494 14.3634 9.08614 13.5842C9.08614 13.2858 9.13294 12.9897 9.22414 12.7056C9.37414 12.2333 9.11254 11.7274 8.63854 11.5764C8.16214 11.4277 7.65814 11.6866 7.50814 12.1601C7.36174 12.6217 7.28614 13.0988 7.28614 13.583C7.28374 14.8393 7.77334 16.0249 8.66374 16.9179C9.55414 17.811 10.7373 18.3037 11.9961 18.3049H12.0009Z" fill="#5849FF"/>
</g>
</g>
</svg>
