<svg width="16" height="16" viewBox="0 0 16 16" fill="none" xmlns="http://www.w3.org/2000/svg">
<g id="Frame 99">
<g id="Group 2267">
<path id="Vector" d="M8.5 1C7.04181 1.00167 5.64382 1.59222 4.61272 2.64209C3.58163 3.69196 3.00164 5.11541 3 6.60015C3 8.87871 4.62456 10.7709 6.34538 12.7736C6.88988 13.4078 7.45363 14.0637 7.9555 14.7274C8.01972 14.8122 8.10221 14.8809 8.19661 14.9282C8.29101 14.9754 8.3948 15 8.5 15C8.6052 15 8.70899 14.9754 8.80339 14.9282C8.89779 14.8809 8.98028 14.8122 9.0445 14.7274C9.54637 14.0637 10.1101 13.4078 10.6546 12.7736C12.3754 10.7709 14 8.87871 14 6.60015C13.9984 5.11541 13.4184 3.69196 12.3873 2.64209C11.3562 1.59222 9.95819 1.00167 8.5 1Z" fill="#DFDFDF"/>
<circle id="Ellipse 9" cx="8.5" cy="6.5" r="2.5" fill="white"/>
</g>
</g>
</svg>
