<svg width="79" height="12" viewBox="0 0 79 12" fill="none" xmlns="http://www.w3.org/2000/svg">
<g id="Group 2272">
<path id="Icon" d="M5.80562 0.549118C5.95928 0.237826 6.03611 0.0821792 6.14041 0.0324501C6.23115 -0.0108167 6.33658 -0.0108167 6.42732 0.0324501C6.53162 0.0821792 6.60845 0.237826 6.76211 0.549118L8.21989 3.50243C8.26526 3.59433 8.28794 3.64028 8.32109 3.67596C8.35044 3.70755 8.38563 3.73314 8.42473 3.75132C8.46889 3.77186 8.51959 3.77927 8.621 3.79409L11.8818 4.27071C12.2252 4.3209 12.3969 4.346 12.4764 4.42987C12.5455 4.50284 12.578 4.60311 12.5649 4.70276C12.5497 4.81729 12.4254 4.93836 12.1768 5.1805L9.81815 7.47785C9.74463 7.54947 9.70786 7.58528 9.68414 7.62788C9.66314 7.66561 9.64966 7.70705 9.64446 7.74991C9.63859 7.79832 9.64727 7.8489 9.66462 7.95007L10.2212 11.195C10.2799 11.5372 10.3092 11.7084 10.2541 11.8099C10.2061 11.8983 10.1208 11.9602 10.0219 11.9786C9.90827 11.9996 9.7546 11.9188 9.44726 11.7572L6.53211 10.2241C6.44128 10.1764 6.39586 10.1525 6.34802 10.1431C6.30565 10.1348 6.26208 10.1348 6.21972 10.1431C6.17187 10.1525 6.12645 10.1764 6.03562 10.2241L3.12047 11.7572C2.81313 11.9188 2.65946 11.9996 2.54584 11.9786C2.44698 11.9602 2.36167 11.8983 2.31368 11.8099C2.25852 11.7084 2.28787 11.5372 2.34657 11.195L2.90311 7.95007C2.92046 7.8489 2.92914 7.79832 2.92327 7.74991C2.91807 7.70705 2.9046 7.66561 2.88359 7.62788C2.85987 7.58528 2.82311 7.54947 2.74958 7.47785L0.390894 5.18049C0.142296 4.93836 0.0179973 4.81729 0.00287169 4.70276C-0.0102884 4.60311 0.0222232 4.50284 0.0913546 4.42987C0.170811 4.346 0.342502 4.3209 0.685883 4.27071L3.94673 3.79409C4.04814 3.77927 4.09884 3.77186 4.143 3.75132C4.1821 3.73314 4.2173 3.70755 4.24664 3.67596C4.27979 3.64028 4.30247 3.59433 4.34784 3.50243L5.80562 0.549118Z" fill="#FFBC00"/>
<path id="Icon_2" d="M22.3735 0.549118C22.5272 0.237826 22.604 0.0821792 22.7083 0.0324501C22.799 -0.0108167 22.9044 -0.0108167 22.9952 0.0324501C23.0995 0.0821792 23.1763 0.237826 23.33 0.549118L24.7878 3.50243C24.8331 3.59433 24.8558 3.64028 24.889 3.67596C24.9183 3.70755 24.9535 3.73314 24.9926 3.75132C25.0368 3.77186 25.0875 3.77927 25.1889 3.79409L28.4497 4.27071C28.7931 4.3209 28.9648 4.346 29.0442 4.42987C29.1134 4.50284 29.1459 4.60311 29.1327 4.70276C29.1176 4.81729 28.9933 4.93836 28.7447 5.1805L26.386 7.47785C26.3125 7.54947 26.2757 7.58528 26.252 7.62788C26.231 7.66561 26.2175 7.70705 26.2123 7.74991C26.2065 7.79832 26.2151 7.8489 26.2325 7.95007L26.789 11.195C26.8477 11.5372 26.8771 11.7084 26.8219 11.8099C26.7739 11.8983 26.6886 11.9602 26.5898 11.9786C26.4761 11.9996 26.3225 11.9188 26.0151 11.7572L23.1 10.2241C23.0091 10.1764 22.9637 10.1525 22.9159 10.1431C22.8735 10.1348 22.83 10.1348 22.7876 10.1431C22.7397 10.1525 22.6943 10.1764 22.6035 10.2241L19.6883 11.7572C19.381 11.9188 19.2273 11.9996 19.1137 11.9786C19.0148 11.9602 18.9295 11.8983 18.8816 11.8099C18.8264 11.7084 18.8557 11.5372 18.9144 11.195L19.471 7.95007C19.4883 7.8489 19.497 7.79832 19.4911 7.74991C19.4859 7.70705 19.4725 7.66561 19.4515 7.62788C19.4277 7.58528 19.391 7.54947 19.3174 7.47785L16.9588 5.18049C16.7102 4.93836 16.5859 4.81729 16.5707 4.70276C16.5576 4.60311 16.5901 4.50284 16.6592 4.42987C16.7387 4.346 16.9104 4.3209 17.2538 4.27071L20.5146 3.79409C20.616 3.77927 20.6667 3.77186 20.7109 3.75132C20.75 3.73314 20.7852 3.70755 20.8145 3.67596C20.8477 3.64028 20.8703 3.59433 20.9157 3.50243L22.3735 0.549118Z" fill="#FFBC00"/>
<path id="Icon_3" d="M38.9414 0.549118C39.095 0.237826 39.1718 0.0821792 39.2761 0.0324501C39.3669 -0.0108167 39.4723 -0.0108167 39.5631 0.0324501C39.6674 0.0821792 39.7442 0.237826 39.8979 0.549118L41.3556 3.50243C41.401 3.59433 41.4237 3.64028 41.4568 3.67596C41.4862 3.70755 41.5214 3.73314 41.5605 3.75132C41.6046 3.77186 41.6553 3.77927 41.7567 3.79409L45.0176 4.27071C45.361 4.3209 45.5327 4.346 45.6121 4.42987C45.6812 4.50284 45.7138 4.60311 45.7006 4.70276C45.6855 4.81729 45.5612 4.93836 45.3126 5.1805L42.9539 7.47785C42.8804 7.54947 42.8436 7.58528 42.8199 7.62788C42.7989 7.66561 42.7854 7.70705 42.7802 7.74991C42.7743 7.79832 42.783 7.8489 42.8004 7.95007L43.3569 11.195C43.4156 11.5372 43.445 11.7084 43.3898 11.8099C43.3418 11.8983 43.2565 11.9602 43.1576 11.9786C43.044 11.9996 42.8903 11.9188 42.583 11.7572L39.6678 10.2241C39.577 10.1764 39.5316 10.1525 39.4838 10.1431C39.4414 10.1348 39.3978 10.1348 39.3555 10.1431C39.3076 10.1525 39.2622 10.1764 39.1714 10.2241L36.2562 11.7572C35.9489 11.9188 35.7952 11.9996 35.6816 11.9786C35.5827 11.9602 35.4974 11.8983 35.4494 11.8099C35.3943 11.7084 35.4236 11.5372 35.4823 11.195L36.0389 7.95007C36.0562 7.8489 36.0649 7.79832 36.059 7.74991C36.0538 7.70705 36.0403 7.66561 36.0193 7.62788C35.9956 7.58528 35.9588 7.54947 35.8853 7.47785L33.5266 5.18049C33.278 4.93836 33.1537 4.81729 33.1386 4.70276C33.1255 4.60311 33.158 4.50284 33.2271 4.42987C33.3066 4.346 33.4782 4.3209 33.8216 4.27071L37.0825 3.79409C37.1839 3.77927 37.2346 3.77186 37.2787 3.75132C37.3178 3.73314 37.353 3.70755 37.3824 3.67596C37.4155 3.64028 37.4382 3.59433 37.4836 3.50243L38.9414 0.549118Z" fill="#FFBC00"/>
<path id="Icon_4" d="M55.5092 0.549118C55.6629 0.237826 55.7397 0.0821792 55.844 0.0324501C55.9348 -0.0108167 56.0402 -0.0108167 56.1309 0.0324501C56.2352 0.0821792 56.3121 0.237826 56.4657 0.549118L57.9235 3.50243C57.9689 3.59433 57.9916 3.64028 58.0247 3.67596C58.054 3.70755 58.0892 3.73314 58.1283 3.75132C58.1725 3.77186 58.2232 3.77927 58.3246 3.79409L61.5855 4.27071C61.9288 4.3209 62.1005 4.346 62.18 4.42987C62.2491 4.50284 62.2816 4.60311 62.2685 4.70276C62.2533 4.81729 62.129 4.93836 61.8805 5.1805L59.5218 7.47785C59.4482 7.54947 59.4115 7.58528 59.3878 7.62788C59.3667 7.66561 59.3533 7.70705 59.3481 7.74991C59.3422 7.79832 59.3509 7.8489 59.3682 7.95007L59.9248 11.195C59.9835 11.5372 60.0128 11.7084 59.9577 11.8099C59.9097 11.8983 59.8244 11.9602 59.7255 11.9786C59.6119 11.9996 59.4582 11.9188 59.1509 11.7572L56.2357 10.2241C56.1449 10.1764 56.0995 10.1525 56.0516 10.1431C56.0093 10.1348 55.9657 10.1348 55.9233 10.1431C55.8755 10.1525 55.8301 10.1764 55.7392 10.2241L52.8241 11.7572C52.5167 11.9188 52.3631 11.9996 52.2494 11.9786C52.1506 11.9602 52.0653 11.8983 52.0173 11.8099C51.9621 11.7084 51.9915 11.5372 52.0502 11.195L52.6067 7.95007C52.6241 7.8489 52.6328 7.79832 52.6269 7.74991C52.6217 7.70705 52.6082 7.66561 52.5872 7.62788C52.5635 7.58528 52.5267 7.54947 52.4532 7.47785L50.0945 5.18049C49.8459 4.93836 49.7216 4.81729 49.7065 4.70276C49.6933 4.60311 49.7258 4.50284 49.795 4.42987C49.8744 4.346 50.0461 4.3209 50.3895 4.27071L53.6503 3.79409C53.7517 3.77927 53.8025 3.77186 53.8466 3.75132C53.8857 3.73314 53.9209 3.70755 53.9503 3.67596C53.9834 3.64028 54.0061 3.59433 54.0514 3.50243L55.5092 0.549118Z" fill="#FFBC00"/>
<path id="Icon_5" d="M72.0771 0.549118C72.2308 0.237826 72.3076 0.0821792 72.4119 0.0324501C72.5026 -0.0108167 72.6081 -0.0108167 72.6988 0.0324501C72.8031 0.0821792 72.8799 0.237826 73.0336 0.549118L74.4914 3.50243C74.5367 3.59433 74.5594 3.64028 74.5926 3.67596C74.6219 3.70755 74.6571 3.73314 74.6962 3.75132C74.7404 3.77186 74.7911 3.77927 74.8925 3.79409L78.1533 4.27071C78.4967 4.3209 78.6684 4.346 78.7479 4.42987C78.817 4.50284 78.8495 4.60311 78.8363 4.70276C78.8212 4.81729 78.6969 4.93836 78.4483 5.1805L76.0896 7.47785C76.0161 7.54947 75.9793 7.58528 75.9556 7.62788C75.9346 7.66561 75.9211 7.70705 75.9159 7.74991C75.9101 7.79832 75.9188 7.8489 75.9361 7.95007L76.4926 11.195C76.5513 11.5372 76.5807 11.7084 76.5255 11.8099C76.4775 11.8983 76.3922 11.9602 76.2934 11.9786C76.1798 11.9996 76.0261 11.9188 75.7187 11.7572L72.8036 10.2241C72.7128 10.1764 72.6673 10.1525 72.6195 10.1431C72.5771 10.1348 72.5336 10.1348 72.4912 10.1431C72.4434 10.1525 72.3979 10.1764 72.3071 10.2241L69.392 11.7572C69.0846 11.9188 68.9309 11.9996 68.8173 11.9786C68.7185 11.9602 68.6332 11.8983 68.5852 11.8099C68.53 11.7084 68.5594 11.5372 68.6181 11.195L69.1746 7.95007C69.1919 7.8489 69.2006 7.79832 69.1948 7.74991C69.1896 7.70705 69.1761 7.66561 69.1551 7.62788C69.1314 7.58528 69.0946 7.54947 69.0211 7.47785L66.6624 5.18049C66.4138 4.93836 66.2895 4.81729 66.2744 4.70276C66.2612 4.60311 66.2937 4.50284 66.3628 4.42987C66.4423 4.346 66.614 4.3209 66.9574 4.27071L70.2182 3.79409C70.3196 3.77927 70.3703 3.77186 70.4145 3.75132C70.4536 3.73314 70.4888 3.70755 70.5181 3.67596C70.5513 3.64028 70.574 3.59433 70.6193 3.50243L72.0771 0.549118Z" fill="#FFBC00"/>
</g>
</svg>
