<svg xmlns="http://www.w3.org/2000/svg" width="17" height="16" viewBox="0 0 17 16" fill="none">
  <path d="M1 5.69901C1 5.44088 1 5.31181 1.01096 5.2031C1.1167 4.15462 1.96095 3.32518 3.02816 3.2213C3.13881 3.21053 3.27727 3.21053 3.55419 3.21053C3.66089 3.21053 3.71424 3.21053 3.75954 3.20783C4.33796 3.17342 4.84446 2.81475 5.06061 2.28653C5.07754 2.24516 5.09336 2.19853 5.125 2.10526C5.15664 2.012 5.17246 1.96537 5.18939 1.924C5.40554 1.39578 5.91204 1.03711 6.49046 1.0027C6.53576 1 6.58579 1 6.68585 1H10.3141C10.4142 1 10.4642 1 10.5095 1.0027C11.088 1.03711 11.5945 1.39578 11.8106 1.924C11.8275 1.96537 11.8434 2.012 11.875 2.10526C11.9066 2.19853 11.9225 2.24516 11.9394 2.28653C12.1555 2.81475 12.662 3.17342 13.2405 3.20783C13.2858 3.21053 13.3391 3.21053 13.4458 3.21053C13.7227 3.21053 13.8612 3.21053 13.9718 3.2213C15.039 3.32518 15.8833 4.15462 15.989 5.2031C16 5.31181 16 5.44088 16 5.69901V11.4632C16 12.7012 16 13.3202 15.7548 13.793C15.539 14.209 15.1948 14.5471 14.7715 14.7591C14.2902 15 13.6601 15 12.4 15H4.6C3.33988 15 2.70982 15 2.22852 14.7591C1.80516 14.5471 1.46095 14.209 1.24524 13.793C1 13.3202 1 12.7012 1 11.4632V5.69901Z" stroke="#787878" stroke-linecap="round" stroke-linejoin="round"/>
  <path d="M8.5 11.6842C10.1569 11.6842 11.5 10.3646 11.5 8.73684C11.5 7.10906 10.1569 5.78947 8.5 5.78947C6.84315 5.78947 5.5 7.10906 5.5 8.73684C5.5 10.3646 6.84315 11.6842 8.5 11.6842Z" stroke="#787878" stroke-linecap="round" stroke-linejoin="round"/>
</svg>