<svg xmlns="http://www.w3.org/2000/svg" width="16" height="14" viewBox="0 0 16 14" fill="none">
  <path d="M7.87636 4.45455L10.1818 6.75273C10.1818 6.71637 10.1818 6.67273 10.1818 6.63637C10.1818 6.05771 9.95195 5.50276 9.54278 5.09359C9.13361 4.68442 8.57865 4.45455 8 4.45455C7.95636 4.45455 7.92 4.45455 7.87636 4.45455ZM4.74909 5.03637L5.87636 6.16364C5.84 6.31637 5.81818 6.46909 5.81818 6.63637C5.81818 7.21502 6.04805 7.76998 6.45722 8.17915C6.86639 8.58832 7.42135 8.81818 8 8.81818C8.16 8.81818 8.32 8.79637 8.47273 8.76L9.6 9.88728C9.11273 10.1273 8.57455 10.2727 8 10.2727C7.03558 10.2727 6.11065 9.88961 5.4287 9.20766C4.74675 8.52571 4.36364 7.60079 4.36364 6.63637C4.36364 6.06182 4.50909 5.52364 4.74909 5.03637ZM0.727273 1.01455L2.38545 2.67273L2.71273 3C1.51273 3.94546 0.567273 5.18182 0 6.63637C1.25818 9.82909 4.36364 12.0909 8 12.0909C9.12727 12.0909 10.2036 11.8727 11.1855 11.48L11.4982 11.7855L13.6218 13.9091L14.5455 12.9855L1.65091 0.0909119M8 3C8.96442 3 9.88935 3.38312 10.5713 4.06507C11.2532 4.74702 11.6364 5.67194 11.6364 6.63637C11.6364 7.10182 11.5418 7.55273 11.3745 7.96L13.5055 10.0909C14.5964 9.18182 15.4691 7.98909 16 6.63637C14.7418 3.44364 11.6364 1.18182 8 1.18182C6.98182 1.18182 6.00727 1.36364 5.09091 1.69091L6.66909 3.25455C7.08364 3.09455 7.52727 3 8 3Z" fill="#787878"/>
</svg>