<svg xmlns="http://www.w3.org/2000/svg" width="34" height="32" viewBox="0 0 34 32" fill="none">
  <path d="M15.5051 1.46653C15.9155 0.635163 16.1207 0.219477 16.3992 0.0866648C16.6416 -0.0288882 16.9231 -0.0288882 17.1655 0.0866648C17.4441 0.219477 17.6492 0.635162 18.0596 1.46653L21.9529 9.35396C22.0741 9.5994 22.1347 9.72212 22.2232 9.81741C22.3016 9.90177 22.3956 9.97012 22.5 10.0187C22.6179 10.0735 22.7533 10.0933 23.0242 10.1329L31.7329 11.4058C32.65 11.5399 33.1085 11.6069 33.3207 11.8309C33.5054 12.0258 33.5922 12.2935 33.5571 12.5597C33.5167 12.8656 33.1847 13.1889 32.5208 13.8356L26.2214 19.9712C26.025 20.1624 25.9269 20.2581 25.8635 20.3718C25.8074 20.4726 25.7714 20.5833 25.7575 20.6977C25.7419 20.827 25.765 20.9621 25.8114 21.2323L27.2977 29.8985C27.4545 30.8126 27.5329 31.2696 27.3856 31.5408C27.2574 31.7768 27.0296 31.9423 26.7655 31.9912C26.4621 32.0475 26.0517 31.8316 25.2309 31.4L17.4453 27.3057C17.2028 27.1781 17.0815 27.1143 16.9537 27.0892C16.8405 27.067 16.7242 27.067 16.611 27.0892C16.4833 27.1143 16.362 27.1781 16.1194 27.3057L8.33386 31.4C7.51305 31.8316 7.10264 32.0475 6.79918 31.9912C6.53515 31.9423 6.30733 31.7768 6.17916 31.5408C6.03185 31.2696 6.11023 30.8126 6.267 29.8985L7.75336 21.2323C7.7997 20.9621 7.82287 20.827 7.80719 20.6977C7.79331 20.5833 7.75732 20.4726 7.70123 20.3718C7.63787 20.2581 7.53969 20.1624 7.34332 19.9712L1.04396 13.8356C0.380031 13.1889 0.0480655 12.8656 0.00766944 12.5597C-0.0274774 12.2935 0.0593516 12.0258 0.243981 11.8309C0.456186 11.6069 0.914722 11.5399 1.83179 11.4058L10.5406 10.1329C10.8114 10.0933 10.9468 10.0735 11.0647 10.0187C11.1692 9.97012 11.2632 9.90177 11.3415 9.81741C11.4301 9.72212 11.4906 9.5994 11.6118 9.35396L15.5051 1.46653Z" fill="#FFBC00"/>
</svg>