<svg xmlns="http://www.w3.org/2000/svg" width="34" height="32" viewBox="0 0 34 32" fill="none">
  <path d="M15.7629 1.46653C16.1733 0.635163 16.3785 0.219477 16.657 0.0866648C16.8994 -0.0288882 17.181 -0.0288882 17.4233 0.0866648C17.7019 0.219477 17.9071 0.635162 18.3174 1.46653L22.2107 9.35396C22.3319 9.5994 22.3925 9.72212 22.481 9.81741C22.5594 9.90177 22.6534 9.97012 22.7578 10.0187C22.8757 10.0735 23.0112 10.0933 23.282 10.1329L31.9907 11.4058C32.9078 11.5399 33.3664 11.6069 33.5786 11.8309C33.7632 12.0258 33.85 12.2935 33.8149 12.5597C33.7745 12.8656 33.4425 13.1889 32.7786 13.8356L26.4792 19.9712C26.2829 20.1624 26.1847 20.2581 26.1213 20.3718C26.0652 20.4726 26.0292 20.5833 26.0153 20.6977C25.9997 20.827 26.0228 20.9621 26.0692 21.2323L27.5555 29.8985C27.7123 30.8126 27.7907 31.2696 27.6434 31.5408C27.5152 31.7768 27.2874 31.9423 27.0234 31.9912C26.7199 32.0475 26.3095 31.8316 25.4887 31.4L17.7032 27.3057C17.4606 27.1781 17.3393 27.1143 17.2115 27.0892C17.0984 27.067 16.982 27.067 16.8689 27.0892C16.7411 27.1143 16.6198 27.1781 16.3772 27.3057L8.59167 31.4C7.77086 31.8316 7.36046 32.0475 7.05699 31.9912C6.79297 31.9423 6.56514 31.7768 6.43697 31.5408C6.28966 31.2696 6.36805 30.8126 6.52481 29.8985L8.01117 21.2323C8.05751 20.9621 8.08068 20.827 8.065 20.6977C8.05112 20.5833 8.01513 20.4726 7.95904 20.3718C7.89568 20.2581 7.7975 20.1624 7.60113 19.9712L1.30178 13.8356C0.637844 13.1889 0.305878 12.8656 0.265482 12.5597C0.230335 12.2935 0.317164 12.0258 0.501794 11.8309C0.713998 11.6069 1.17253 11.5399 2.08961 11.4058L10.7984 10.1329C11.0692 10.0933 11.2046 10.0735 11.3225 10.0187C11.427 9.97012 11.521 9.90177 11.5994 9.81741C11.6879 9.72212 11.7485 9.5994 11.8696 9.35396L15.7629 1.46653Z" fill="#DFDFDF"/>
</svg>