<svg xmlns="http://www.w3.org/2000/svg" width="218" height="86" viewBox="0 0 218 86" fill="none">
  <g filter="url(#filter0_d_198_362)">
    <path fill-rule="evenodd" clip-rule="evenodd" d="M186.857 4.4855C186.469 3.83816 185.531 3.83817 185.143 4.4855L180.634 12H12C7.58172 12 4 15.5817 4 20V74C4 78.4183 7.58172 82 12 82H206C210.418 82 214 78.4183 214 74V20C214 15.5817 210.418 12 206 12H191.366L186.857 4.4855Z" fill="white"/>
    <path d="M185.143 4.4855L184.928 4.35688V4.35688L185.143 4.4855ZM186.857 4.4855L187.072 4.35688V4.35688L186.857 4.4855ZM180.634 12V12.25H180.775L180.848 12.1286L180.634 12ZM191.366 12L191.152 12.1286L191.225 12.25H191.366V12ZM185.357 4.61413C185.648 4.12862 186.352 4.12862 186.643 4.61413L187.072 4.35688C186.586 3.54771 185.414 3.54771 184.928 4.35688L185.357 4.61413ZM180.848 12.1286L185.357 4.61413L184.928 4.35688L180.419 11.8714L180.848 12.1286ZM12 12.25H180.634V11.75H12V12.25ZM4.25 20C4.25 15.7198 7.71979 12.25 12 12.25V11.75C7.44365 11.75 3.75 15.4437 3.75 20H4.25ZM4.25 74V20H3.75V74H4.25ZM12 81.75C7.71979 81.75 4.25 78.2802 4.25 74H3.75C3.75 78.5564 7.44365 82.25 12 82.25V81.75ZM206 81.75H12V82.25H206V81.75ZM213.75 74C213.75 78.2802 210.28 81.75 206 81.75V82.25C210.556 82.25 214.25 78.5564 214.25 74H213.75ZM213.75 20V74H214.25V20H213.75ZM206 12.25C210.28 12.25 213.75 15.7198 213.75 20H214.25C214.25 15.4437 210.556 11.75 206 11.75V12.25ZM191.366 12.25H206V11.75H191.366V12.25ZM186.643 4.61413L191.152 12.1286L191.581 11.8714L187.072 4.35688L186.643 4.61413Z" fill="#DFDFDF"/>
  </g>
  <defs>
    <filter id="filter0_d_198_362" x="0.75" y="0.75" width="216.5" height="84.5" filterUnits="userSpaceOnUse" color-interpolation-filters="sRGB">
      <feFlood flood-opacity="0" result="BackgroundImageFix"/>
      <feColorMatrix in="SourceAlpha" type="matrix" values="0 0 0 0 0 0 0 0 0 0 0 0 0 0 0 0 0 0 127 0" result="hardAlpha"/>
      <feOffset/>
      <feGaussianBlur stdDeviation="1.5"/>
      <feComposite in2="hardAlpha" operator="out"/>
      <feColorMatrix type="matrix" values="0 0 0 0 0 0 0 0 0 0 0 0 0 0 0 0 0 0 0.1 0"/>
      <feBlend mode="normal" in2="BackgroundImageFix" result="effect1_dropShadow_198_362"/>
      <feBlend mode="normal" in="SourceGraphic" in2="effect1_dropShadow_198_362" result="shape"/>
    </filter>
  </defs>
</svg>