<svg xmlns="http://www.w3.org/2000/svg" width="218" height="86" viewBox="0 0 218 86" fill="none">
  <g filter="url(#filter0_d_198_350)">
    <path fill-rule="evenodd" clip-rule="evenodd" d="M31.1425 4.4855C31.5309 3.83816 32.4691 3.83817 32.8575 4.4855L37.3662 12H206C210.418 12 214 15.5817 214 20V74C214 78.4183 210.418 82 206 82H12C7.58173 82 4 78.4183 4 74V20C4 15.5817 7.58173 12 12 12H26.6338L31.1425 4.4855Z" fill="white"/>
    <path d="M32.8575 4.4855L33.0719 4.35688V4.35688L32.8575 4.4855ZM31.1425 4.4855L30.9281 4.35688V4.35688L31.1425 4.4855ZM37.3662 12V12.25H37.2247L37.1518 12.1286L37.3662 12ZM26.6338 12L26.8482 12.1286L26.7753 12.25H26.6338V12ZM32.6431 4.61413C32.3518 4.12862 31.6482 4.12862 31.3569 4.61413L30.9281 4.35688C31.4137 3.54771 32.5863 3.54771 33.0719 4.35688L32.6431 4.61413ZM37.1518 12.1286L32.6431 4.61413L33.0719 4.35688L37.5806 11.8714L37.1518 12.1286ZM206 12.25H37.3662V11.75H206V12.25ZM213.75 20C213.75 15.7198 210.28 12.25 206 12.25V11.75C210.556 11.75 214.25 15.4437 214.25 20H213.75ZM213.75 74V20H214.25V74H213.75ZM206 81.75C210.28 81.75 213.75 78.2802 213.75 74H214.25C214.25 78.5564 210.556 82.25 206 82.25V81.75ZM12 81.75H206V82.25H12V81.75ZM4.25 74C4.25 78.2802 7.7198 81.75 12 81.75V82.25C7.44365 82.25 3.75 78.5564 3.75 74H4.25ZM4.25 20V74H3.75V20H4.25ZM12 12.25C7.7198 12.25 4.25 15.7198 4.25 20H3.75C3.75 15.4437 7.44365 11.75 12 11.75V12.25ZM26.6338 12.25H12V11.75H26.6338V12.25ZM31.3569 4.61413L26.8482 12.1286L26.4194 11.8714L30.9281 4.35688L31.3569 4.61413Z" fill="#DFDFDF"/>
  </g>
  <defs>
    <filter id="filter0_d_198_350" x="0.75" y="0.75" width="216.5" height="84.5" filterUnits="userSpaceOnUse" color-interpolation-filters="sRGB">
      <feFlood flood-opacity="0" result="BackgroundImageFix"/>
      <feColorMatrix in="SourceAlpha" type="matrix" values="0 0 0 0 0 0 0 0 0 0 0 0 0 0 0 0 0 0 127 0" result="hardAlpha"/>
      <feOffset/>
      <feGaussianBlur stdDeviation="1.5"/>
      <feComposite in2="hardAlpha" operator="out"/>
      <feColorMatrix type="matrix" values="0 0 0 0 0 0 0 0 0 0 0 0 0 0 0 0 0 0 0.1 0"/>
      <feBlend mode="normal" in2="BackgroundImageFix" result="effect1_dropShadow_198_350"/>
      <feBlend mode="normal" in="SourceGraphic" in2="effect1_dropShadow_198_350" result="shape"/>
    </filter>
  </defs>
</svg>