<svg xmlns="http://www.w3.org/2000/svg" width="24" height="24" viewBox="0 0 24 24" fill="none">
  <rect width="24" height="24" fill="white"/>
  <path d="M9.57792 20.1C10.2234 20.6601 11.0713 21 12 21C12.9287 21 13.7766 20.6601 14.4221 20.1M17.4926 8.4C17.4926 6.96783 16.9139 5.59432 15.8839 4.58162C14.8538 3.56893 13.4567 3 12 3C10.5433 3 9.14621 3.56893 8.11615 4.58162C7.08608 5.59432 6.5074 6.96783 6.5074 8.4C6.5074 11.1812 5.79379 13.0854 4.99663 14.3449C4.32421 15.4073 3.988 15.9385 4.00033 16.0867C4.01398 16.2508 4.04933 16.3133 4.18383 16.4114C4.30529 16.5 4.85284 16.5 5.94794 16.5H18.0521C19.1472 16.5 19.6947 16.5 19.8162 16.4114C19.9507 16.3133 19.986 16.2508 19.9997 16.0867C20.012 15.9385 19.6758 15.4073 19.0034 14.3449C18.2062 13.0854 17.4926 11.1812 17.4926 8.4Z" stroke="#333333" stroke-width="1.5" stroke-linecap="round" stroke-linejoin="round"/>
</svg>