<svg xmlns="http://www.w3.org/2000/svg" width="15" height="14" viewBox="0 0 15 14" fill="none">
  <path d="M11 12H3L1.85714 5.25L5 7.78125L7 4.6875L9 7.78125L12.1429 5.25L11 12Z" fill="#787878"/>
  <path d="M13 4.40625C13 4.87224 12.6162 5.25 12.1429 5.25C11.6695 5.25 11.2857 4.87224 11.2857 4.40625C11.2857 3.94026 11.6695 3.5625 12.1429 3.5625C12.6162 3.5625 13 3.94026 13 4.40625Z" fill="#787878"/>
  <path d="M7.85714 3.84375C7.85714 4.30974 7.47339 4.6875 7 4.6875C6.52661 4.6875 6.14286 4.30974 6.14286 3.84375C6.14286 3.37776 6.52661 3 7 3C7.47339 3 7.85714 3.37776 7.85714 3.84375Z" fill="#787878"/>
  <path d="M2.71429 4.40625C2.71429 4.87224 2.33053 5.25 1.85714 5.25C1.38376 5.25 1 4.87224 1 4.40625C1 3.94026 1.38376 3.5625 1.85714 3.5625C2.33053 3.5625 2.71429 3.94026 2.71429 4.40625Z" fill="#787878"/>
</svg>