<svg xmlns="http://www.w3.org/2000/svg" width="64" height="64" viewBox="0 0 64 64" fill="none">
  <circle cx="32" cy="32" r="32" fill="#DFDFDF"/>
  <path d="M31.9999 63.75C23.0558 63.75 14.9757 60.0519 9.20473 54.1008C11.0559 50.3851 13.505 47.1319 16.4256 44.5483C21.0566 40.4516 26.6334 38.25 32.3513 38.25C38.0692 38.25 43.646 40.4516 48.277 44.5483C51.0706 47.0195 53.4328 50.1034 55.253 53.6186C49.4555 59.8516 41.1832 63.75 31.9999 63.75ZM45.1013 22C45.1013 29.0416 39.3929 34.75 32.3513 34.75C25.3097 34.75 19.6013 29.0416 19.6013 22C19.6013 14.9584 25.3097 9.25 32.3513 9.25C39.3929 9.25 45.1013 14.9584 45.1013 22Z" fill="white" stroke="#DFDFDF" stroke-width="0.5" stroke-linecap="round" stroke-linejoin="round"/>
</svg>