<svg xmlns="http://www.w3.org/2000/svg" width="11" height="14" viewBox="0 0 11 14" fill="none">
  <path fill-rule="evenodd" clip-rule="evenodd" d="M3.84375 0.6C3.84375 0.268629 4.06761 0 4.34375 0H9.01042C10.0229 0 10.8438 0.984974 10.8438 2.2V11.8C10.8438 13.015 10.0229 14 9.01042 14H4.34375C4.06761 14 3.84375 13.7314 3.84375 13.4C3.84375 13.0686 4.06761 12.8 4.34375 12.8H9.01042C9.47065 12.8 9.84375 12.3523 9.84375 11.8V2.2C9.84375 1.64772 9.47065 1.2 9.01042 1.2H4.34375C4.06761 1.2 3.84375 0.931371 3.84375 0.6Z" fill="#787878"/>
  <path fill-rule="evenodd" clip-rule="evenodd" d="M0.853548 3.80269C0.658284 3.60743 0.341701 3.60744 0.146442 3.8027C-0.0488178 3.99797 -0.0488133 4.31455 0.146452 4.50981L2.63543 6.99872L0.146452 9.48763C-0.0488133 9.68289 -0.0488177 9.99947 0.146442 10.1947C0.341701 10.39 0.658284 10.39 0.853548 10.1947L3.34255 7.70581L5.83126 10.1945C6.02653 10.3897 6.34311 10.3897 6.53837 10.1945C6.73363 9.99919 6.73362 9.6826 6.53836 9.48734L4.04966 6.99872L6.53836 4.51009C6.73362 4.31483 6.73363 3.99825 6.53837 3.80299C6.34311 3.60772 6.02653 3.60772 5.83126 3.80298L3.34255 6.29162L0.853548 3.80269Z" fill="#787878"/>
</svg>