<svg xmlns="http://www.w3.org/2000/svg" width="16" height="16" viewBox="0 0 16 16" fill="none">
  <path fill-rule="evenodd" clip-rule="evenodd" d="M4.66676 5.26667C4.66676 2.35797 7.02473 0 9.93343 0C12.8421 0 15.2001 2.35797 15.2001 5.26667C15.2001 8.17537 12.8421 10.5333 9.93343 10.5333C9.69375 10.5333 9.45751 10.5173 9.22579 10.4861C9.0522 10.4628 8.93877 10.4476 8.85484 10.4395C8.7991 10.4342 8.77445 10.434 8.7689 10.4339C8.7558 10.4359 8.74842 10.4374 8.74493 10.4381C8.74129 10.4398 8.73328 10.4437 8.71898 10.4517C8.71535 10.4543 8.70208 10.4643 8.67506 10.4889C8.62967 10.5303 8.57155 10.5882 8.47479 10.6849L7.24658 11.9132C7.13406 12.0257 6.98145 12.0889 6.82232 12.0889H5.86676V13.0444C5.86676 13.3758 5.59813 13.6444 5.26676 13.6444H4.3112V14.6C4.3112 14.9314 4.04257 15.2 3.7112 15.2L1.82374 15.2C1.62384 15.2 1.43929 15.2 1.28484 15.1874C1.11803 15.1738 0.934241 15.1425 0.752373 15.0498C0.493128 14.9177 0.282354 14.707 0.150262 14.4477C0.0575951 14.2659 0.0263105 14.0821 0.0126823 13.9153C6.31306e-05 13.7608 7.70182e-05 13.5763 9.20385e-05 13.3764L9.31114e-05 12.0044C9.31114e-05 11.9919 7.01636e-05 11.9793 4.7037e-05 11.9667C-0.00022935 11.8151 -0.000529639 11.6506 0.0381612 11.4894C0.0719124 11.3488 0.127581 11.2144 0.203122 11.0912C0.289719 10.9499 0.406297 10.8337 0.513623 10.7268C0.522594 10.7178 0.5315 10.709 0.540318 10.7001L4.51515 6.7253C4.61191 6.62854 4.66982 6.57042 4.71115 6.52503C4.73576 6.49801 4.74579 6.48474 4.74844 6.48112C4.75636 6.46681 4.76028 6.45879 4.76196 6.45516C4.76274 6.45167 4.76421 6.4443 4.76622 6.4312C4.76612 6.42566 4.76593 6.40101 4.76055 6.34525C4.75245 6.26132 4.7373 6.1479 4.71396 5.97431C4.68281 5.74258 4.66676 5.50634 4.66676 5.26667ZM9.93343 1.2C7.68747 1.2 5.86676 3.02071 5.86676 5.26667C5.86676 5.45272 5.87921 5.63554 5.90326 5.81442L5.90477 5.82564C5.92618 5.98488 5.94447 6.12087 5.955 6.22993C5.9652 6.33565 5.97373 6.46439 5.95538 6.59264C5.92903 6.7769 5.88496 6.9073 5.79415 7.06978C5.6991 7.23982 5.54726 7.391 5.4028 7.53482C5.38969 7.54788 5.37663 7.56088 5.36368 7.57383L1.38885 11.5487C1.31789 11.6196 1.27873 11.659 1.25044 11.69C1.2343 11.7077 1.22783 11.7161 1.22602 11.7186C1.2165 11.7342 1.20946 11.7513 1.20513 11.769C1.20464 11.7721 1.20325 11.7826 1.20215 11.8066C1.20024 11.8485 1.20009 11.904 1.20009 12.0044V13.3556C1.20009 13.5833 1.20056 13.7179 1.2087 13.8175C1.21329 13.8738 1.21919 13.8989 1.22134 13.9065C1.23784 13.9371 1.26295 13.9623 1.29358 13.9787C1.30119 13.9809 1.32633 13.9868 1.38255 13.9914C1.48215 13.9995 1.61684 14 1.84454 14H3.1112V13.0444C3.1112 12.7131 3.37983 12.4444 3.7112 12.4444H4.66676V11.4889C4.66676 11.1575 4.93539 10.8889 5.26676 10.8889H6.57379L7.62627 9.83641C7.63921 9.82346 7.65221 9.8104 7.66528 9.79729C7.8091 9.65284 7.96028 9.50099 8.13032 9.40595C8.2928 9.31513 8.4232 9.27107 8.60746 9.24471C8.73571 9.22637 8.86445 9.23489 8.97016 9.2451C9.07921 9.25563 9.21519 9.27391 9.3744 9.29531L9.38568 9.29683C9.56455 9.32088 9.74738 9.33333 9.93343 9.33333C12.1794 9.33333 14.0001 7.51262 14.0001 5.26667C14.0001 3.02071 12.1794 1.2 9.93343 1.2ZM1.22218 13.9091C1.22218 13.9092 1.22204 13.9088 1.2218 13.908L1.22218 13.9091ZM9.33343 3.71111C9.33343 3.37974 9.60206 3.11111 9.93343 3.11111C10.4842 3.11111 11.0369 3.32168 11.4576 3.74246C11.8784 4.16322 12.089 4.7159 12.089 5.2666C12.089 5.59797 11.8204 5.86661 11.489 5.86662C11.1576 5.86663 10.889 5.59801 10.889 5.26664C10.889 5.02117 10.7958 4.77768 10.6091 4.59099C10.4224 4.40429 10.1789 4.31111 9.93343 4.31111C9.60206 4.31111 9.33343 4.04248 9.33343 3.71111Z" fill="#333333"/>
</svg>