<svg xmlns="http://www.w3.org/2000/svg" width="14" height="14" viewBox="0 0 14 14" fill="none">
  <path fill-rule="evenodd" clip-rule="evenodd" d="M0 1.58065C0 0.70768 0.707679 0 1.58065 0H7.90323C8.27735 0 8.58065 0.303291 8.58065 0.677419C8.58065 1.05155 8.27735 1.35484 7.90323 1.35484H1.58065C1.45594 1.35484 1.35484 1.45594 1.35484 1.58065V12.4194C1.35484 12.5441 1.45594 12.6452 1.58065 12.6452H7.90323C8.27735 12.6452 8.58065 12.9485 8.58065 13.3226C8.58065 13.6967 8.27735 14 7.90323 14H1.58065C0.707679 14 0 13.2923 0 12.4194V1.58065ZM4.69141 7.00017C4.69141 6.62604 4.9947 6.32275 5.36883 6.32275L10.9546 6.32275L9.40154 4.76971C9.13699 4.50516 9.13699 4.07624 9.40154 3.81169C9.66609 3.54714 10.095 3.54714 10.3596 3.81169L13.0054 6.4575C13.3052 6.75733 13.3052 7.24343 13.0054 7.54325L10.3596 10.1891C10.095 10.4536 9.66609 10.4536 9.40154 10.1891C9.13699 9.92451 9.13699 9.4956 9.40154 9.23105L10.955 7.67759L5.36883 7.67759C4.9947 7.67759 4.69141 7.3743 4.69141 7.00017Z" fill="#333333"/>
</svg>