<svg xmlns="http://www.w3.org/2000/svg" width="14" height="14" viewBox="0 0 14 14" fill="none">
  <g clip-path="url(#clip0_750_2368)">
    <path d="M1.67773 10.5675C1.70453 10.3263 1.71793 10.2057 1.75442 10.093C1.7868 9.99301 1.83254 9.89783 1.89041 9.81008C1.95564 9.71116 2.04144 9.62536 2.21305 9.45375L9.91672 1.75009C10.5611 1.10576 11.6057 1.10576 12.2501 1.75009C12.8944 2.39443 12.8944 3.4391 12.2501 4.08343L4.54638 11.7871C4.37478 11.9587 4.28897 12.0445 4.19006 12.1097C4.1023 12.1676 4.00713 12.2133 3.90712 12.2457C3.79439 12.2822 3.67379 12.2956 3.43259 12.3224L1.45837 12.5418L1.67773 10.5675Z" stroke="#5849FF" stroke-width="1.6" stroke-linecap="round" stroke-linejoin="round"/>
  </g>
  <defs>
    <clipPath id="clip0_750_2368">
      <rect width="14" height="14" fill="white"/>
    </clipPath>
  </defs>
</svg>