<svg width="20" height="20" viewBox="0 0 20 20" fill="none" xmlns="http://www.w3.org/2000/svg">
<g id="Frame 23">
<g id="Group 58">
<path id="Vector" d="M13.1389 6.11106C13.1389 7.84462 11.7335 9.24995 9.99997 9.24995C8.26641 9.24995 6.86108 7.84462 6.86108 6.11106C6.86108 4.3775 8.26641 2.97217 9.99997 2.97217C11.7335 2.97217 13.1389 4.3775 13.1389 6.11106Z" stroke="#787878" stroke-width="1.5" stroke-linecap="round" stroke-linejoin="round"/>
<path id="Vector_2" d="M16.1738 15.7221C16.3381 16.0281 16.2971 16.3255 16.1225 16.5706C15.9382 16.8293 15.5988 17.0278 15.1833 17.0278H4.81662C4.40107 17.0278 4.06174 16.8293 3.87741 16.5706C3.70278 16.3255 3.66174 16.0281 3.82611 15.7221C4.32425 14.7945 4.95398 13.9863 5.68457 13.3369C6.95718 12.2057 8.46889 11.6143 9.99995 11.6143C11.531 11.6143 13.0427 12.2057 14.3153 13.3369C15.0459 13.9863 15.6756 14.7945 16.1738 15.7221Z" stroke="#787878" stroke-width="1.5" stroke-linecap="round" stroke-linejoin="round"/>
</g>
</g>
</svg>
